<?xml version="1.0" encoding="UTF-8" standalone="no"?>
<svg id="svg2" xmlns:rdf="http://www.w3.org/1999/02/22-rdf-syntax-ns#" xmlns="http://www.w3.org/2000/svg" height="818.53" width="972.7" version="1.1" xmlns:cc="http://creativecommons.org/ns#" xmlns:dc="http://purl.org/dc/elements/1.1/" viewBox="0 0 9.7269818 8.1853143">
 <metadata id="metadata26">
  <rdf:RDF>
   <cc:Work rdf:about="">
    <dc:format>image/svg+xml</dc:format>
    <dc:type rdf:resource="http://purl.org/dc/dcmitype/StillImage"/>
   </cc:Work>
  </rdf:RDF>
 </metadata>
 <path id="path2296" d="m7.7936 0-0.07156 0.03188-0.11125 0.02719-0.11438 0.06375-0.05781 0.0175-0.05313 0.09625-0.02656 0.02125-0.0038 0.05031 0.02938-0.0041 0.05813 0.005 0.0087 0.03781 0.01844 0.02969-0.0038 0.0775-0.05625 0.06719-0.04094 0.14812-0.01813 0.07813-0.02781 0.08281 0.03125 0.04906-0.02656 0.05437-0.05906 0.01406-0.06438 0.07563-0.05031 0.03656-0.08375-0.0044-0.08719-0.03438-0.06875 0.2175 0.0097 0.03437-0.02094 0.02875-0.0087 0.09125-0.03812 0.03344 0.03 0.06375 0.04469 0.0325 0.03281-0.03656 0.12156-0.02531 0.06531 0.03031 0.04063-0.07531 0.10312-0.01875 0.06094 0.03719 0.04406 0.0056 0.02813 0.04219 0.09125 0.05438 0.04969 0.09625-0.0325 0.03813-0.05688 0.01344-0.07313-0.01813-0.02969 0.01563-0.04563-0.0081-0.08781 0.06969-0.04188-0.0084-0.015 0.04344-0.07156 0.0094-0.0525 0.05281-0.0275 0.06625 0.00031 0.04281-0.08094 0.08531-0.15219 0.02125-0.02844 0.05375-0.11344 0.11062-0.15688-0.0069-0.03594-0.02969-0.09219-0.0028-0.06 0.16375 0.105 0.12625-0.03469 0.02781-0.02969 0.03281-0.075 0.041562-0.10844 0.14563-0.14562 0.076562-0.19625 0.016875-0.06313 0.01625-0.08031-0.010937-0.03094 0.026562-0.08844 0.023437-0.13812 0.07125-0.14219 0.090625-0.04594-0.014375-0.03187-0.044063-0.06437 0.017188-0.17688-0.047187-0.13438-0.033437-0.05594-0.067188-0.28-0.045312-0.15125 0.025938-0.16594-0.03-0.14156-0.011563-0.14031-0.034688-0.07781-0.10375-0.05375-0.18-0.03219-0.02094 0.00062-0.0425-0.07469-0.01937-0.13187-0.09406-0.07844-0.07406-0.27406-0.03969-0.07219-0.03875-0.05469-0.01094-0.02625-0.02969 0.0072-0.07125 0.06156-0.08469-0.01344-0.06563 0.02625-0.03281 0.0047-0.0525-0.05687-0.10875-0.01531-0.09062-0.05125-0.07594-0.02812 0.0062-0.05375-0.05656-0.02875 0.0091-0.04156-0.000312-0.02063-0.02812-0.03312-0.07281-0.07094-0.04781 0.00094-0.0275-0.03281-0.05625 0.01656-0.02531-0.0025-0.04125-0.04625 0.01125-0.04781-0.02062-0.05719 0.0097-0.0072 0.04594-0.02281 0.05375-0.07438 0.0325-0.07094-0.01187-0.05687 0.13094 0.0078 0.10312-0.01531 0.05375-0.065 0.01219-0.06156 0.03-0.02438-0.02844-0.04344-0.02313-0.05813-0.0034-0.13375-0.07563-0.02 0.05-0.1075 0.18344-0.05281 0.10969 0.04281 0.04219-0.02906 0.05781-0.03563-0.02437-0.0575 0.000937-0.04-0.05125-0.10906 0.01938h-0.14594l-0.03594 0.03 0.08 0.04781-0.02031 0.0325-0.02562 0.10156 0.02719 0.13281-0.01125 0.04094 0.0059 0.045-0.05656 0.01594-0.0028 0.04063-0.05719 0.0225-0.0038 0.04875-0.02188 0.10031-0.04344-0.01406-0.03719 0.02281-0.08937 0.015-0.14125 0.041563-0.07875 0.068125-0.1059-0.0108-0.09281-0.0354-0.07437 0.0822-0.05312 0.0403-0.04406-0.0162-0.05219 0.0047-0.02219-0.0756-0.05656 0.0212-0.06719-0.0247-0.0034 0.024375-0.09 0.029375-0.05594-0.00938-0.03969 0.034375-0.01156 0.078125-0.04844 0.00906-0.01875 0.041875 0.01875 0.0625-0.02938 0.015 0.01344 0.09125 0.05125-0.025937 0.10156 0.065-0.02469 0.06375 0.0078 0.045312-0.0081 0.10531 0.00094 0.051563-0.11406 0.00125-0.0016 0.0325 0.05938 0.039375 0.07062 0.017188 0.0175 0.054062 0.05125 0.020625 0.01406 0.086875-0.01875 0.055625 0.02938 0.065625 0.04531 0.00906 0.06344 0.072188 0.1425 0.066875 0.03375-0.000937 0.15625 0.29906-0.07375 0.049688-0.02719 0.1325 0.05719 0.06875-0.01469 0.14219-0.09187 0.018125-0.01625-0.052187-0.05125-0.00969-0.0094 0.060937 0.02969 0.078125-0.01312 0.037187 0.0028 0.04-0.01188 0.038437-0.00062 0.025313 0.11875 0.1175 0.06437 0.016875 0.05313 0.081875 0.07031 0.065937 0.05094 0.056563 0.02156 0.044375 0.10406-0.07 0.01188 0.036875 0.04594 0.0325 0.0925 0.064687 0.04094 0.058438 0.075 0.059375 0.01844 0.080938 0.04844 0.045625 0.04125-0.053437 0.03656 0.020937-0.01094 0.09125 0.12469 0.08 0.05469-0.00531-0.0053 0.0325 0.01031 0.046563 0.05625 0.012188 0.06562 0.043437 0.01719 0.050937 0.02906-0.03 0.03125 0.034688 0.02688 0.012187 0.04719-0.029062 0.10156 0.084062 0.05719-0.00906 0.03094 0.022187 0.1875-0.042187 0.04438 0.024687 0.0012 0.035938-0.02844 0.0625 0.01094 0.035938 0.01781-0.00219 0.05937-0.063125 0.07125-0.059687 0.10094-0.04625 0.05813 0.019687 0.06156 0.061562 0.11531 0.015 0.07781 0.054687 0.105 0.02875 0.38562-0.13219 0.61281 0.089062 0.03625-0.04125 0.03656-0.012812 0.02656 0.032188 0.03937 0.017188 0.02094 0.072188 0.04281 0.094375 0.02-0.025 0.04531 0.028437-0.0081 0.077187 0.0084 0.03375-0.0047 0.15344-0.03 0.062813 0.01031 0.049062-0.03219 0.014062-0.03375 0.046875-0.03094 0.00125-0.01625 0.045937-0.06219 0.024687-0.01719 0.057812 0.0063 0.024063-0.03281 0.010937-0.01531 0.025313 0.0066 0.05 0.01656 0.018438 0.0078 0.042813-0.02688 0.044062 0.0059 0.025 0.05281-0.018125 0.02937-0.03 0.0925-0.00625 0.02406 0.015 0.05125-0.00531-0.03594 0.050625 0.02656 0.039687 0.01688 0.10906 0.03562 0.03125 0.07938 0.000937 0.0084 0.02844-0.03719 0.055625 0.0078 0.043125-0.03125 0.04125-0.01 0.041563 0.03594 0.015625 0.02-0.00406 0.10406 0.024688-0.0063 0.050937 0.02938 0.030937 0.02906 0.05875 0.02562-0.02594 0.04688 0.019687 0.04969-0.040938 0.05344-0.01875 0.04656 0.11969 0.04781-0.00875 0.04531 0.010937 0.0094-0.10344-0.04687-0.12656 0.03062-0.058125 0.02625 0.011875 0.07-0.00344 0.03844-0.029063 0.02969-0.04375 0.06563 0.0325 0.02344 0.029688 0.02031 0.00156 0.06906-0.07375 0.03312 0.046875 0.02594-0.045625 0.06344 0.062812 0.0175-0.041875 0.03187-0.031562 0.02688 0.025 0.03344-0.01625 0.07062-0.027188 0.0022-0.042187 0.09594-0.064687 0.05156 0.049688 0.075 0.040312 0.04781-0.015625 0.03219 0.030938 0.03969-0.016563 0.0575 0.02125 0.0012 0.030938-0.03656 0.029063-0.0034 0.03375 0.01625 0.015938 0.01813 0.070312 0.06031 0.015312 0.03219 0.0375 0.07437 0.030312 0.0675-0.01875 0.03625 0.02375 0.03344-0.013125 0.0053 0.00469h0.02031l0.01-0.0225 0.02781-0.00781v-0.047813l0.02781-0.0075 0.0075 0.030312 0.02531 0.032812 0.015-0.015312 0.02781 0.015312 0.02781 0.0075 0.01031 0.040312 0.0175-0.0125 0.06063-0.012812-0.01-0.042812 0.0125-0.0025 0.03031 0.037813 0.05813 0.005-0.0125 0.022812-0.02781 0.042813-0.01031 0.080938 0.02781 0.0075 0.005 0.058125 0.04313 0.022812-0.01281 0.01 0.0078 0.025313 0.07562-0.0025 0.03531-0.035312 0.0025-0.015313-0.03531-0.035312-0.0075-0.035312-0.02781-0.01-0.01-0.032813 0.0225-0.022812 0.03563-0.025314 0.025-0.0025 0.03562-0.048125 0.04031-0.0025 0.0175-0.0225 0.05563-0.00281 0.01781-0.015h0.03281l0.03281-0.022812v-0.0225l0.03031-0.010313 0.02281-0.0125h0.03281 0.04031l0.0075-0.022812 0.03781 0.01 0.04312-0.030312h0.04031l-0.0041-0.059066 0.0097-0.02125 0.03375 0.04375 0.03531-0.045625-0.01281-0.031875 0.02812 0.026875 0.015-0.00281 0.0097-0.018438-0.0025-0.018125-0.01406-0.036875-0.0038-0.035-0.0084-0.013438 0.0075-0.020313 0.02031 0.020313 0.02219-0.00219 0.0097 0.024063 0.02375 0.021875 0.02781-0.00156-0.01031 0.035938 0.02531-0.0025 0.01688 0.00437 0.02812 0.00531-0.0056-0.018125 0.02031-0.012812-0.03187-0.026875 0.03375-0.013437 0.02906 0.013437 0.0028-0.037812 0.03531-0.0175 0.005 0.037812 0.03281-0.0025 0.01531-0.025313 0.03531-0.032813 0.03031-0.0025 0.0125 0.0075 0.0025 0.022813h0.02781l0.0078-0.042813 0.01-0.012812 0.04031 0.022812 0.03781-0.027807 0.02281-0.005 0.03031-0.022813 0.04812-0.0075 0.005-0.053125 0.04031-0.0175-0.015-0.025313-0.02031-0.00781 0.05813-0.005 0.03781-0.0175-0.02031-0.017812 0.01781-0.025313 0.03531 0.0025 0.0075-0.035312 0.02781 0.005-0.01-0.045313 0.03781 0.01v-0.042813h0.02781l0.02031-0.032813 0.02-0.020313-0.0125-0.025313-0.02281-0.02 0.04031-0.0075 0.01781-0.025313 0.03031-0.015312h0.04281l0.01281-0.0175 0.01-0.022813-0.02031-0.0125-0.0075-0.020313 0.05313-0.0025 0.01-0.017812-0.015-0.027813 0.02-0.0175 0.02031-0.017813 0.02281-0.0075-0.02281-0.027813 0.005-0.027812 0.01781-0.02 0.02781 0.0175 0.0225 0.005 0.0053-0.0175-0.02281-0.032812 0.02281-0.035625-0.01281-0.0225 0.005-0.022812-0.015-0.025313 0.0125-0.040312 0.01781-0.022813-0.01-0.0175-0.03813-0.032812 0.0078-0.027813 0.03281 0.005 0.01 0.0125 0.0075-0.040312 0.03281-0.022812 0.01531-0.0125 0.0025-0.035312 0.02-0.020313-0.0175-0.0125h0.02531l0.02781-0.038125-0.0028-0.037813 0.0028-0.022812 0.0175-0.050313 0.01531-0.035312 0.0175-0.012812 0.005-0.060625 0.03031-0.0125 0.0078 0.050625 0.02751-0.038125 0.03313-0.0225-0.02031-0.043125-0.01781-0.030312 0.02781-0.025313v-0.035312l0.02781-0.037813-0.01-0.030312 0.0175-0.015-0.01-0.038125-0.005-0.060625-0.01781 0.043125-0.02781 0.0025 0.03563-0.048126 0.04281-0.032813 0.03531-0.0175-0.005-0.025313-0.05562-0.022812-0.02281 0.0075-0.015 0.035625-0.02531 0.01-0.03281-0.022813-0.04531-0.035312-0.03813 0.005-0.04781 0.043125-0.02531 0.01-0.04531-0.0075-0.04062-0.010313-0.0075-0.0125 0.03281-0.017812 0.05313-0.005 0.03031-0.01 0.0025-0.030312 0.06313-0.050626 0.04531-0.032813 0.03281-0.040312 0.0078-0.040312-0.03562-0.030312-0.05281-0.020313-0.04063-0.022812-0.02-0.0225-0.04062-0.00781-0.04781-0.0075-0.005-0.027813-0.03781-0.0075-0.04063 0.020312-0.015 0.005 0.0175-0.027813 0.03281-0.015313 0.04812 0.005 0.01781 0.025312 0.0275 0.010313h0.04813l0.03531 0.005 0.03531 0.02 0.04562 0.00781 0.0225-0.005 0.0078-0.015311-0.02781-0.037813-0.05313-0.048125-0.04781-0.0125-0.01781-0.050625-0.04563-0.0175-0.05031-0.012812-0.01781-0.0125 0.0078-0.032812-0.01281-0.032813-0.06062-0.088437-0.03781-0.063125-0.04812-0.090938-0.025-0.025313-0.06594-0.020312-0.05781-0.0175-0.02281-0.025313-0.05562-0.01-0.005-0.045625 0.02531-0.025 0.005-0.043125 0.015-0.022813 0.02031-0.050312 0.03281-0.010313 0.0075-0.025 0.01531-0.040624 0.02531-0.0225-0.02781-0.030312 0.015-0.015313 0.02531 0.012813 0.03281 0.005 0.02781-0.027813-0.0025-0.060625 0.015-0.027813 0.02281-0.005 0.04562-0.037812 0.03281-0.022813 0.04281-0.032812 0.02531-0.032812 0.02781 0.005 0.0125-0.0125 0.02781 0.025 0.03281-0.025-0.0125-0.033125 0.01-0.025-0.0025-0.045625-0.03281-0.0125-0.02781 0.015-0.03281-0.015-0.05062 0.02-0.04031 0.020313-0.02281-0.01-0.0175-0.020313-0.02281 0.005-0.04281-0.027813-0.03281-0.015-0.04062 0.015-0.04281 0.032812-0.0075 0.040625-0.04563 0.040312-0.0075 0.042813-0.03281 0.035626-0.07062-0.00781-0.05313-0.02-0.0075-0.095937-0.03281-0.035625-0.04813-0.0125-0.03031-0.022813-0.02781 0.010313-0.03281 0.02-0.03031-0.025313-0.04031-0.032813-0.02781-0.052812-0.005-0.065625 0.0175-0.043125 0.04062-0.027813 0.0225-0.005 0.03563 0.017813 0.025-0.012813 0.01531-0.0175h0.03531l0.015-0.010312 0.01281 0.00531 0.0075-0.050625 0.0125-0.045625 0.02781-0.045313 0.02531-0.015v-0.022813l0.05312-0.032812 0.06063-0.045625 0.03031-0.02 0.0025-0.050625 0.03781-0.053125 0.01531-0.015 0.005-0.032812 0.03281-0.020313 0.05031-0.0025 0.03563-0.020312 0.03031 0.00781 0.05031 0.050312 0.02781 0.020312-0.0175 0.040313-0.01781 0.040312-0.0125 0.038125-0.04062 0.030312-0.0175 0.02-0.0025 0.050625-0.02281 0.0125 0.03531 0.020312 0.02031 0.017813 0.03531-0.010306-0.01531 0.043125-0.005 0.025-0.02781 0.015313-0.01 0.020312-0.02281 0.0025-0.01 0.037813 0.015 0.0175 0.04063-0.032813 0.03531-0.040313 0.04031-0.027812 0.02281-0.025313 0.0175-0.040313 0.07594-0.068125 0.05281-0.043438 0.02531-0.0025 0.01125-0.024688 0.04625-0.00844 0.02062-0.020625 0.05438-0.005 0.03469-0.020938 0.01344-0.065 0.09281-0.11656 0.10844-0.091875 0.07125-0.12031 0.0053-0.078437 0.05625-0.03937 0.06781 0.0475 0.14562-0.01938 0.0041-0.03875-0.05313-0.05906 0.0091-0.03281 0.07625-0.01938 0.07188-0.0475 0.01094-0.06531 0.05406-0.01438 0.005-0.13188 0.04687-0.0075 0.03313 0.05094 0.04719 0.0084-0.02-0.02281 0.01812-0.03062 0.04844-0.035 0.02375-0.12031-0.02563-0.0275-0.01625-0.11344-0.095-0.16438 0.05156-0.02469 0.05125-0.10562 0.03937 0.015 0.15375-0.0125-0.0078-0.09469 0.02844-0.03438 0.0078-0.12531 0.01844-0.0425-0.01813-0.05875 0.005-0.04-0.0059-0.10281-0.0087-0.03594 0.01406-0.03406 0.02656-0.02187 0.01344-0.05875-0.04625-0.05125-0.00063-0.06563-0.04781-0.02063-0.07719 0.05688-0.04 0.055-0.03906 0.0072-0.04219 0.03219-0.0325 0.07875-0.09937 0.045-0.06938 0.0056-0.04656 0.02438-0.08406-0.06781 0.0125-0.05125-0.05656-0.05781-0.01313-0.06219-0.0525 0.01812-0.14312-0.08563-0.04531 0.02188-0.08375-0.03813-0.05344 0.03438-0.06812 0.0038-0.06125-0.06062-0.01-0.06625-0.03625-0.015-0.01281-0.07188-0.09094-0.09375-0.0038-0.04344-0.09219-0.11469-0.01719-0.06125-0.04125-0.05781-0.0475-0.03719-0.0225-0.03969-0.13219-0.06594-0.05594 0.025-0.18156-0.05688zm-1.1247 7.7175-0.04813 0.02125-0.04281 0.0125-0.06594 0.00906-0.0091 0.015937-0.03219 0.00719-0.05187-0.00875-0.0125 0.00156-0.01781 0.00906v0.017812l-0.01406 0.00719-0.03938-0.00188-0.02156 0.014375v0.02125l0.025 0.00188-0.01407 0.023129-0.02688 0.00719-0.07688 0.05375-0.0125 0.026563 0.0072 0.025-0.0091 0.023438 0.0091 0.048125 0.0125 0.030313 0.0072 0.042813 0.05344 0.023437 0.04281 0.019375 0.06094-0.00344 0.02125 0.019687 0.04469-0.00719v-0.035625l0.03563-0.00906 0.03219-0.00188 0.0019-0.019375 0.03563-0.044687h0.02156l0.02313-0.010938 0.0072-0.04625 0.0091-0.0625 0.02656-0.057188 0.02687-0.0375 0.025-0.021562-0.0053-0.03375-0.01437-0.039375v-0.035625l-0.01438-0.00531z" fill-rule="evenodd" fill="#de2910"/>
 <g id="g2868" fill="#ffde00" transform="matrix(.62212 0 0 .63524 1.9878 3.2707)">
  <g id="g2870">
   <polygon id="polygon2872" points="0 0 0 1 0.5 1" transform="matrix(.95106 .30902 -.30902 .95106 0 -1)"/>
   <polygon id="use2874" points="0 1 0.5 1 0 0" transform="matrix(-.95106 .30902 .30902 .95106 0 -1)"/>
  </g>
  <g id="use2876" transform="rotate(72.001)">
   <polygon id="polygon3006" points="0 1 0.5 1 0 0" transform="matrix(.95106 .30902 -.30902 .95106 0 -1)"/>
   <polygon id="use3008" points="0 1 0.5 1 0 0" transform="matrix(-.95106 .30902 .30902 .95106 0 -1)"/>
  </g>
  <g id="use2878" transform="rotate(-72.001)">
   <polygon id="polygon3012" points="0 1 0.5 1 0 0" transform="matrix(.95106 .30902 -.30902 .95106 0 -1)"/>
   <polygon id="use3014" points="0 1 0.5 1 0 0" transform="matrix(-.95106 .30902 .30902 .95106 0 -1)"/>
  </g>
  <g id="use2880" transform="rotate(144)">
   <polygon id="polygon3018" points="0 1 0.5 1 0 0" transform="matrix(.95106 .30902 -.30902 .95106 0 -1)"/>
   <polygon id="use3020" points="0 1 0.5 1 0 0" transform="matrix(-.95106 .30902 .30902 .95106 0 -1)"/>
  </g>
  <g id="use2882" transform="rotate(216)">
   <polygon id="polygon3024" points="0 1 0.5 1 0 0" transform="matrix(.95106 .30902 -.30902 .95106 0 -1)"/>
   <polygon id="use3026" points="0 1 0.5 1 0 0" transform="matrix(-.95106 .30902 .30902 .95106 0 -1)"/>
  </g>
 </g>
 <g id="use2884" fill="#ffde00" transform="matrix(0 .20963 -.20530 0 3.023 4.1197)">
  <g id="g2918">
   <polygon id="polygon2920" points="0 1 0.5 1 0 0" transform="matrix(.95106 .30902 -.30902 .95106 0 -1)"/>
   <polygon id="use2922" points="0 1 0.5 1 0 0" transform="matrix(-.95106 .30902 .30902 .95106 0 -1)"/>
  </g>
  <g id="use2924" transform="rotate(72.001)">
   <polygon id="polygon3030" points="0 1 0.5 1 0 0" transform="matrix(.95106 .30902 -.30902 .95106 0 -1)"/>
   <polygon id="use3032" points="0 1 0.5 1 0 0" transform="matrix(-.95106 .30902 .30902 .95106 0 -1)"/>
  </g>
  <g id="use2926" transform="rotate(-72.001)">
   <polygon id="polygon3036" points="0 1 0.5 1 0 0" transform="matrix(.95106 .30902 -.30902 .95106 0 -1)"/>
   <polygon id="use3038" points="0 1 0.5 1 0 0" transform="matrix(-.95106 .30902 .30902 .95106 0 -1)"/>
  </g>
  <g id="use2928" transform="rotate(144)">
   <polygon id="polygon3042" points="0 1 0.5 1 0 0" transform="matrix(.95106 .30902 -.30902 .95106 0 -1)"/>
   <polygon id="use3044" points="0 1 0.5 1 0 0" transform="matrix(-.95106 .30902 .30902 .95106 0 -1)"/>
  </g>
  <g id="use2930" transform="rotate(216)">
   <polygon id="polygon3048" points="0 1 0.5 1 0 0" transform="matrix(.95106 .30902 -.30902 .95106 0 -1)"/>
   <polygon id="use3050" points="0 1 0.5 1 0 0" transform="matrix(-.95106 .30902 .30902 .95106 0 -1)"/>
  </g>
 </g>
 <g id="use2886" fill="#ffde00" transform="matrix(0 .20963 -.20530 0 3.023 2.6375)">
  <g id="g2934">
   <polygon id="polygon2936" points="0 1 0.5 1 0 0" transform="matrix(.95106 .30902 -.30902 .95106 0 -1)"/>
   <polygon id="use2938" points="0 1 0.5 1 0 0" transform="matrix(-.95106 .30902 .30902 .95106 0 -1)"/>
  </g>
  <g id="use2940" transform="rotate(72.001)">
   <polygon id="polygon3054" points="0 1 0.5 1 0 0" transform="matrix(.95106 .30902 -.30902 .95106 0 -1)"/>
   <polygon id="use3056" points="0 1 0.5 1 0 0" transform="matrix(-.95106 .30902 .30902 .95106 0 -1)"/>
  </g>
  <g id="use2942" transform="rotate(-72.001)">
   <polygon id="polygon3060" points="0 1 0.5 1 0 0" transform="matrix(.95106 .30902 -.30902 .95106 0 -1)"/>
   <polygon id="use3062" points="0 1 0.5 1 0 0" transform="matrix(-.95106 .30902 .30902 .95106 0 -1)"/>
  </g>
  <g id="use2944" transform="rotate(144)">
   <polygon id="polygon3066" points="0 1 0.5 1 0 0" transform="matrix(.95106 .30902 -.30902 .95106 0 -1)"/>
   <polygon id="use3068" points="0 1 0.5 1 0 0" transform="matrix(-.95106 .30902 .30902 .95106 0 -1)"/>
  </g>
  <g id="use2946" transform="rotate(216)">
   <polygon id="polygon3072" points="0 1 0.5 1 0 0" transform="matrix(.95106 .30902 -.30902 .95106 0 -1)"/>
   <polygon id="use3074" points="0 1 0.5 1 0 0" transform="matrix(-.95106 .30902 .30902 .95106 0 -1)"/>
  </g>
 </g>
 <g id="use2888" fill="#ffde00" transform="matrix(.20734 -.0036955 .0036192 .21172 3.4395 3.6942)">
  <g id="g2950">
   <polygon id="polygon2952" points="0 1 0.5 1 0 0" transform="matrix(.95106 .30902 -.30902 .95106 0 -1)"/>
   <polygon id="use2954" points="0 1 0.5 1 0 0" transform="matrix(-.95106 .30902 .30902 .95106 0 -1)"/>
  </g>
  <g id="use2956" transform="rotate(72.001)">
   <polygon id="polygon3078" points="0 1 0.5 1 0 0" transform="matrix(.95106 .30902 -.30902 .95106 0 -1)"/>
   <polygon id="use3080" points="0 1 0.5 1 0 0" transform="matrix(-.95106 .30902 .30902 .95106 0 -1)"/>
  </g>
  <g id="use2958" transform="rotate(-72.001)">
   <polygon id="polygon3084" points="0 1 0.5 1 0 0" transform="matrix(.95106 .30902 -.30902 .95106 0 -1)"/>
   <polygon id="use3086" points="0 1 0.5 1 0 0" transform="matrix(-.95106 .30902 .30902 .95106 0 -1)"/>
  </g>
  <g id="use2960" transform="rotate(144)">
   <polygon id="polygon3090" points="0 1 0.5 1 0 0" transform="matrix(.95106 .30902 -.30902 .95106 0 -1)"/>
   <polygon id="use3092" points="0 1 0.5 1 0 0" transform="matrix(-.95106 .30902 .30902 .95106 0 -1)"/>
  </g>
  <g id="use2962" transform="rotate(216)">
   <polygon id="polygon3096" points="0 1 0.5 1 0 0" transform="matrix(.95106 .30902 -.30902 .95106 0 -1)"/>
   <polygon id="use3098" points="0 1 0.5 1 0 0" transform="matrix(-.95106 .30902 .30902 .95106 0 -1)"/>
  </g>
 </g>
 <g id="use2890" fill="#ffde00" transform="matrix(-.0036192 -.21172 .20734 -.0036955 3.4395 3.059)">
  <g id="g2966">
   <polygon id="polygon2968" points="0 1 0.5 1 0 0" transform="matrix(.95106 .30902 -.30902 .95106 0 -1)"/>
   <polygon id="use2970" points="0 1 0.5 1 0 0" transform="matrix(-.95106 .30902 .30902 .95106 0 -1)"/>
  </g>
  <g id="use2972" transform="rotate(72.001)">
   <polygon id="polygon3102" points="0 1 0.5 1 0 0" transform="matrix(.95106 .30902 -.30902 .95106 0 -1)"/>
   <polygon id="use3104" points="0 1 0.5 1 0 0" transform="matrix(-.95106 .30902 .30902 .95106 0 -1)"/>
  </g>
  <g id="use2974" transform="rotate(-72.001)">
   <polygon id="polygon3108" points="0 1 0.5 1 0 0" transform="matrix(.95106 .30902 -.30902 .95106 0 -1)"/>
   <polygon id="use3110" points="0 1 0.5 1 0 0" transform="matrix(-.95106 .30902 .30902 .95106 0 -1)"/>
  </g>
  <g id="use2976" transform="rotate(144)">
   <polygon id="polygon3114" points="0 1 0.5 1 0 0" transform="matrix(.95106 .30902 -.30902 .95106 0 -1)"/>
   <polygon id="use3116" points="0 1 0.5 1 0 0" transform="matrix(-.95106 .30902 .30902 .95106 0 -1)"/>
  </g>
  <g id="use2978" transform="rotate(216)">
   <polygon id="polygon3120" points="0 1 0.5 1 0 0" transform="matrix(.95106 .30902 -.30902 .95106 0 -1)"/>
   <polygon id="use3122" points="0 1 0.5 1 0 0" transform="matrix(-.95106 .30902 .30902 .95106 0 -1)"/>
  </g>
 </g>
</svg>
